<mxfile host="app.diagrams.net" modified="2023-08-14T15:31:24.701Z" agent="Mozilla/5.0 (Windows NT 10.0; Win64; x64; rv:109.0) Gecko/20100101 Firefox/116.0" etag="E765tUeg2mIj-CZ9QXeG" version="21.6.8" type="device">
  <diagram id="C5RBs43oDa-KdzZeNtuy" name="Page-1">
    <mxGraphModel dx="1629" dy="624" grid="1" gridSize="10" guides="1" tooltips="1" connect="1" arrows="1" fold="1" page="1" pageScale="1" pageWidth="827" pageHeight="1169" math="0" shadow="0">
      <root>
        <mxCell id="WIyWlLk6GJQsqaUBKTNV-0" />
        <mxCell id="WIyWlLk6GJQsqaUBKTNV-1" parent="WIyWlLk6GJQsqaUBKTNV-0" />
        <mxCell id="ap-XVFQRTmhTfxtv4-1j-0" value="Start" style="rounded=1;whiteSpace=wrap;html=1;" vertex="1" parent="WIyWlLk6GJQsqaUBKTNV-1">
          <mxGeometry x="380" y="30" width="90" height="30" as="geometry" />
        </mxCell>
        <mxCell id="ap-XVFQRTmhTfxtv4-1j-1" value="End" style="rounded=1;whiteSpace=wrap;html=1;" vertex="1" parent="WIyWlLk6GJQsqaUBKTNV-1">
          <mxGeometry x="295" y="1080" width="120" height="60" as="geometry" />
        </mxCell>
        <mxCell id="ap-XVFQRTmhTfxtv4-1j-2" value="&lt;div&gt;int n;&lt;/div&gt;&lt;div&gt;string primos = &quot;Numeros primos:&quot; ;&lt;br&gt;&lt;/div&gt;&lt;div&gt;int contadorPrimos = 0;&lt;/div&gt;&lt;div&gt;int numero = 2;&lt;br&gt;&lt;/div&gt;" style="rounded=0;whiteSpace=wrap;html=1;" vertex="1" parent="WIyWlLk6GJQsqaUBKTNV-1">
          <mxGeometry x="295" y="100" width="260" height="80" as="geometry" />
        </mxCell>
        <mxCell id="ap-XVFQRTmhTfxtv4-1j-3" value="&quot;Ingrese la cantidad de numeros primos que desea obtener&quot;" style="shape=parallelogram;perimeter=parallelogramPerimeter;whiteSpace=wrap;html=1;fixedSize=1;" vertex="1" parent="WIyWlLk6GJQsqaUBKTNV-1">
          <mxGeometry x="225" y="230" width="400" height="60" as="geometry" />
        </mxCell>
        <mxCell id="ap-XVFQRTmhTfxtv4-1j-4" value="contadorPrimos &amp;lt; n" style="rhombus;whiteSpace=wrap;html=1;" vertex="1" parent="WIyWlLk6GJQsqaUBKTNV-1">
          <mxGeometry x="350" y="430" width="150" height="120" as="geometry" />
        </mxCell>
        <mxCell id="ap-XVFQRTmhTfxtv4-1j-5" value="bool esPrimo = true;" style="rounded=0;whiteSpace=wrap;html=1;" vertex="1" parent="WIyWlLk6GJQsqaUBKTNV-1">
          <mxGeometry x="365" y="600" width="120" height="60" as="geometry" />
        </mxCell>
        <mxCell id="ap-XVFQRTmhTfxtv4-1j-6" value="j * j &amp;lt;= numero" style="rhombus;whiteSpace=wrap;html=1;" vertex="1" parent="WIyWlLk6GJQsqaUBKTNV-1">
          <mxGeometry x="425" y="795" width="115" height="105" as="geometry" />
        </mxCell>
        <mxCell id="ap-XVFQRTmhTfxtv4-1j-7" value="" style="endArrow=classic;html=1;rounded=0;exitX=0.5;exitY=1;exitDx=0;exitDy=0;entryX=0.5;entryY=0;entryDx=0;entryDy=0;" edge="1" parent="WIyWlLk6GJQsqaUBKTNV-1" source="ap-XVFQRTmhTfxtv4-1j-0" target="ap-XVFQRTmhTfxtv4-1j-2">
          <mxGeometry width="50" height="50" relative="1" as="geometry">
            <mxPoint x="510" y="70" as="sourcePoint" />
            <mxPoint x="560" y="20" as="targetPoint" />
          </mxGeometry>
        </mxCell>
        <mxCell id="ap-XVFQRTmhTfxtv4-1j-10" value="" style="endArrow=classic;html=1;rounded=0;exitX=0.5;exitY=1;exitDx=0;exitDy=0;entryX=0.5;entryY=0;entryDx=0;entryDy=0;" edge="1" parent="WIyWlLk6GJQsqaUBKTNV-1" source="ap-XVFQRTmhTfxtv4-1j-2" target="ap-XVFQRTmhTfxtv4-1j-3">
          <mxGeometry width="50" height="50" relative="1" as="geometry">
            <mxPoint x="510" y="190" as="sourcePoint" />
            <mxPoint x="560" y="140" as="targetPoint" />
          </mxGeometry>
        </mxCell>
        <mxCell id="ap-XVFQRTmhTfxtv4-1j-12" value="" style="endArrow=classic;html=1;rounded=0;exitX=0.5;exitY=1;exitDx=0;exitDy=0;entryX=0.5;entryY=0;entryDx=0;entryDy=0;" edge="1" parent="WIyWlLk6GJQsqaUBKTNV-1" source="ap-XVFQRTmhTfxtv4-1j-4" target="ap-XVFQRTmhTfxtv4-1j-5">
          <mxGeometry width="50" height="50" relative="1" as="geometry">
            <mxPoint x="520" y="540" as="sourcePoint" />
            <mxPoint x="570" y="490" as="targetPoint" />
          </mxGeometry>
        </mxCell>
        <mxCell id="ap-XVFQRTmhTfxtv4-1j-17" value="Si" style="edgeLabel;html=1;align=center;verticalAlign=middle;resizable=0;points=[];" vertex="1" connectable="0" parent="ap-XVFQRTmhTfxtv4-1j-12">
          <mxGeometry x="-0.2" relative="1" as="geometry">
            <mxPoint as="offset" />
          </mxGeometry>
        </mxCell>
        <mxCell id="ap-XVFQRTmhTfxtv4-1j-13" value="" style="endArrow=classic;html=1;rounded=0;exitX=0.5;exitY=1;exitDx=0;exitDy=0;entryX=0.5;entryY=0;entryDx=0;entryDy=0;" edge="1" parent="WIyWlLk6GJQsqaUBKTNV-1" source="ap-XVFQRTmhTfxtv4-1j-5" target="ap-XVFQRTmhTfxtv4-1j-22">
          <mxGeometry width="50" height="50" relative="1" as="geometry">
            <mxPoint x="570" y="610" as="sourcePoint" />
            <mxPoint x="620" y="560" as="targetPoint" />
          </mxGeometry>
        </mxCell>
        <mxCell id="ap-XVFQRTmhTfxtv4-1j-14" value="" style="ellipse;whiteSpace=wrap;html=1;aspect=fixed;" vertex="1" parent="WIyWlLk6GJQsqaUBKTNV-1">
          <mxGeometry x="410" y="330" width="30" height="30" as="geometry" />
        </mxCell>
        <mxCell id="ap-XVFQRTmhTfxtv4-1j-15" value="" style="endArrow=classic;html=1;rounded=0;exitX=0.5;exitY=1;exitDx=0;exitDy=0;entryX=0.5;entryY=0;entryDx=0;entryDy=0;" edge="1" parent="WIyWlLk6GJQsqaUBKTNV-1" source="ap-XVFQRTmhTfxtv4-1j-3" target="ap-XVFQRTmhTfxtv4-1j-14">
          <mxGeometry width="50" height="50" relative="1" as="geometry">
            <mxPoint x="270" y="440" as="sourcePoint" />
            <mxPoint x="320" y="390" as="targetPoint" />
          </mxGeometry>
        </mxCell>
        <mxCell id="ap-XVFQRTmhTfxtv4-1j-16" value="" style="endArrow=classic;html=1;rounded=0;exitX=0.5;exitY=1;exitDx=0;exitDy=0;entryX=0.5;entryY=0;entryDx=0;entryDy=0;" edge="1" parent="WIyWlLk6GJQsqaUBKTNV-1" source="ap-XVFQRTmhTfxtv4-1j-14" target="ap-XVFQRTmhTfxtv4-1j-4">
          <mxGeometry width="50" height="50" relative="1" as="geometry">
            <mxPoint x="220" y="460" as="sourcePoint" />
            <mxPoint x="270" y="410" as="targetPoint" />
          </mxGeometry>
        </mxCell>
        <mxCell id="ap-XVFQRTmhTfxtv4-1j-18" value="" style="endArrow=classic;html=1;rounded=0;exitX=0;exitY=0.5;exitDx=0;exitDy=0;" edge="1" parent="WIyWlLk6GJQsqaUBKTNV-1" source="ap-XVFQRTmhTfxtv4-1j-4">
          <mxGeometry width="50" height="50" relative="1" as="geometry">
            <mxPoint x="170" y="620" as="sourcePoint" />
            <mxPoint x="260" y="920" as="targetPoint" />
            <Array as="points">
              <mxPoint x="260" y="670" />
            </Array>
          </mxGeometry>
        </mxCell>
        <mxCell id="ap-XVFQRTmhTfxtv4-1j-21" value="No" style="edgeLabel;html=1;align=center;verticalAlign=middle;resizable=0;points=[];" vertex="1" connectable="0" parent="ap-XVFQRTmhTfxtv4-1j-18">
          <mxGeometry x="-0.4965" y="-1" relative="1" as="geometry">
            <mxPoint y="-1" as="offset" />
          </mxGeometry>
        </mxCell>
        <mxCell id="ap-XVFQRTmhTfxtv4-1j-19" value="textBox5.Text = primos;" style="rounded=0;whiteSpace=wrap;html=1;" vertex="1" parent="WIyWlLk6GJQsqaUBKTNV-1">
          <mxGeometry x="190" y="920" width="160" height="60" as="geometry" />
        </mxCell>
        <mxCell id="ap-XVFQRTmhTfxtv4-1j-20" value="" style="endArrow=classic;html=1;rounded=0;exitX=0.5;exitY=1;exitDx=0;exitDy=0;entryX=0.5;entryY=0;entryDx=0;entryDy=0;" edge="1" parent="WIyWlLk6GJQsqaUBKTNV-1" source="ap-XVFQRTmhTfxtv4-1j-19" target="ap-XVFQRTmhTfxtv4-1j-1">
          <mxGeometry width="50" height="50" relative="1" as="geometry">
            <mxPoint x="350" y="1070" as="sourcePoint" />
            <mxPoint x="400" y="1020" as="targetPoint" />
          </mxGeometry>
        </mxCell>
        <mxCell id="ap-XVFQRTmhTfxtv4-1j-22" value="" style="ellipse;whiteSpace=wrap;html=1;aspect=fixed;" vertex="1" parent="WIyWlLk6GJQsqaUBKTNV-1">
          <mxGeometry x="410" y="710" width="30" height="30" as="geometry" />
        </mxCell>
        <mxCell id="ap-XVFQRTmhTfxtv4-1j-23" value="" style="endArrow=classic;html=1;rounded=0;exitX=0.5;exitY=1;exitDx=0;exitDy=0;entryX=0.5;entryY=0;entryDx=0;entryDy=0;" edge="1" parent="WIyWlLk6GJQsqaUBKTNV-1" source="ap-XVFQRTmhTfxtv4-1j-22" target="ap-XVFQRTmhTfxtv4-1j-6">
          <mxGeometry width="50" height="50" relative="1" as="geometry">
            <mxPoint x="550" y="750" as="sourcePoint" />
            <mxPoint x="600" y="700" as="targetPoint" />
          </mxGeometry>
        </mxCell>
        <mxCell id="ap-XVFQRTmhTfxtv4-1j-24" value="" style="endArrow=classic;html=1;rounded=0;exitX=0.5;exitY=1;exitDx=0;exitDy=0;entryX=0;entryY=0.5;entryDx=0;entryDy=0;" edge="1" parent="WIyWlLk6GJQsqaUBKTNV-1" source="ap-XVFQRTmhTfxtv4-1j-6" target="ap-XVFQRTmhTfxtv4-1j-26">
          <mxGeometry width="50" height="50" relative="1" as="geometry">
            <mxPoint x="460" y="960" as="sourcePoint" />
            <mxPoint x="510" y="970" as="targetPoint" />
          </mxGeometry>
        </mxCell>
        <mxCell id="ap-XVFQRTmhTfxtv4-1j-25" value="Si" style="edgeLabel;html=1;align=center;verticalAlign=middle;resizable=0;points=[];" vertex="1" connectable="0" parent="ap-XVFQRTmhTfxtv4-1j-24">
          <mxGeometry x="-0.042" y="-4" relative="1" as="geometry">
            <mxPoint as="offset" />
          </mxGeometry>
        </mxCell>
        <mxCell id="ap-XVFQRTmhTfxtv4-1j-26" value="numero % j == 0" style="rhombus;whiteSpace=wrap;html=1;" vertex="1" parent="WIyWlLk6GJQsqaUBKTNV-1">
          <mxGeometry x="520" y="940" width="100" height="90" as="geometry" />
        </mxCell>
        <mxCell id="ap-XVFQRTmhTfxtv4-1j-27" value="" style="endArrow=classic;html=1;rounded=0;exitX=0.5;exitY=1;exitDx=0;exitDy=0;" edge="1" parent="WIyWlLk6GJQsqaUBKTNV-1" source="ap-XVFQRTmhTfxtv4-1j-26">
          <mxGeometry width="50" height="50" relative="1" as="geometry">
            <mxPoint x="600" y="900" as="sourcePoint" />
            <mxPoint x="570" y="1090" as="targetPoint" />
          </mxGeometry>
        </mxCell>
        <mxCell id="ap-XVFQRTmhTfxtv4-1j-28" value="Si" style="edgeLabel;html=1;align=center;verticalAlign=middle;resizable=0;points=[];" vertex="1" connectable="0" parent="ap-XVFQRTmhTfxtv4-1j-27">
          <mxGeometry x="-0.2" relative="1" as="geometry">
            <mxPoint as="offset" />
          </mxGeometry>
        </mxCell>
        <mxCell id="ap-XVFQRTmhTfxtv4-1j-29" value="&lt;div&gt;esPrimo = false;&lt;/div&gt;&lt;div&gt;break;&lt;br&gt;&lt;/div&gt;" style="rounded=0;whiteSpace=wrap;html=1;" vertex="1" parent="WIyWlLk6GJQsqaUBKTNV-1">
          <mxGeometry x="530" y="1109" width="120" height="60" as="geometry" />
        </mxCell>
        <mxCell id="ap-XVFQRTmhTfxtv4-1j-30" value="esPrimo" style="rhombus;whiteSpace=wrap;html=1;" vertex="1" parent="WIyWlLk6GJQsqaUBKTNV-1">
          <mxGeometry x="730" y="795" width="80" height="80" as="geometry" />
        </mxCell>
        <mxCell id="ap-XVFQRTmhTfxtv4-1j-31" value="" style="endArrow=classic;html=1;rounded=0;exitX=1;exitY=0.5;exitDx=0;exitDy=0;" edge="1" parent="WIyWlLk6GJQsqaUBKTNV-1" source="ap-XVFQRTmhTfxtv4-1j-29" target="ap-XVFQRTmhTfxtv4-1j-30">
          <mxGeometry width="50" height="50" relative="1" as="geometry">
            <mxPoint x="660" y="960" as="sourcePoint" />
            <mxPoint x="700" y="805" as="targetPoint" />
            <Array as="points">
              <mxPoint x="650" y="950" />
            </Array>
          </mxGeometry>
        </mxCell>
        <mxCell id="ap-XVFQRTmhTfxtv4-1j-32" value="No" style="edgeLabel;html=1;align=center;verticalAlign=middle;resizable=0;points=[];" vertex="1" connectable="0" parent="ap-XVFQRTmhTfxtv4-1j-31">
          <mxGeometry x="0.1368" y="-4" relative="1" as="geometry">
            <mxPoint as="offset" />
          </mxGeometry>
        </mxCell>
        <mxCell id="ap-XVFQRTmhTfxtv4-1j-33" value="" style="endArrow=classic;html=1;rounded=0;exitX=0.5;exitY=1;exitDx=0;exitDy=0;" edge="1" parent="WIyWlLk6GJQsqaUBKTNV-1" source="ap-XVFQRTmhTfxtv4-1j-30">
          <mxGeometry width="50" height="50" relative="1" as="geometry">
            <mxPoint x="740" y="1020" as="sourcePoint" />
            <mxPoint x="760" y="960" as="targetPoint" />
          </mxGeometry>
        </mxCell>
        <mxCell id="ap-XVFQRTmhTfxtv4-1j-34" value="Si" style="edgeLabel;html=1;align=center;verticalAlign=middle;resizable=0;points=[];" vertex="1" connectable="0" parent="ap-XVFQRTmhTfxtv4-1j-33">
          <mxGeometry x="-0.1333" relative="1" as="geometry">
            <mxPoint as="offset" />
          </mxGeometry>
        </mxCell>
        <mxCell id="ap-XVFQRTmhTfxtv4-1j-35" value="primos += numero.ToString();" style="rounded=0;whiteSpace=wrap;html=1;" vertex="1" parent="WIyWlLk6GJQsqaUBKTNV-1">
          <mxGeometry x="700" y="960" width="170" height="80" as="geometry" />
        </mxCell>
        <mxCell id="ap-XVFQRTmhTfxtv4-1j-36" value="" style="endArrow=classic;html=1;rounded=0;exitX=1;exitY=0.5;exitDx=0;exitDy=0;" edge="1" parent="WIyWlLk6GJQsqaUBKTNV-1" source="ap-XVFQRTmhTfxtv4-1j-30">
          <mxGeometry width="50" height="50" relative="1" as="geometry">
            <mxPoint x="790" y="790" as="sourcePoint" />
            <mxPoint x="870" y="720" as="targetPoint" />
          </mxGeometry>
        </mxCell>
        <mxCell id="ap-XVFQRTmhTfxtv4-1j-37" value="No" style="edgeLabel;html=1;align=center;verticalAlign=middle;resizable=0;points=[];" vertex="1" connectable="0" parent="ap-XVFQRTmhTfxtv4-1j-36">
          <mxGeometry x="-0.0914" y="-1" relative="1" as="geometry">
            <mxPoint as="offset" />
          </mxGeometry>
        </mxCell>
        <mxCell id="ap-XVFQRTmhTfxtv4-1j-38" value="numero++;" style="rounded=0;whiteSpace=wrap;html=1;" vertex="1" parent="WIyWlLk6GJQsqaUBKTNV-1">
          <mxGeometry x="810" y="660" width="120" height="60" as="geometry" />
        </mxCell>
        <mxCell id="ap-XVFQRTmhTfxtv4-1j-39" value="contadorPrimos &amp;lt; n -1" style="rhombus;whiteSpace=wrap;html=1;" vertex="1" parent="WIyWlLk6GJQsqaUBKTNV-1">
          <mxGeometry x="960" y="830" width="130" height="130" as="geometry" />
        </mxCell>
        <mxCell id="ap-XVFQRTmhTfxtv4-1j-40" value="" style="endArrow=classic;html=1;rounded=0;exitX=1;exitY=0.5;exitDx=0;exitDy=0;entryX=0.5;entryY=1;entryDx=0;entryDy=0;" edge="1" parent="WIyWlLk6GJQsqaUBKTNV-1" source="ap-XVFQRTmhTfxtv4-1j-35" target="ap-XVFQRTmhTfxtv4-1j-39">
          <mxGeometry width="50" height="50" relative="1" as="geometry">
            <mxPoint x="920" y="1090" as="sourcePoint" />
            <mxPoint x="970" y="1040" as="targetPoint" />
            <Array as="points">
              <mxPoint x="960" y="1000" />
            </Array>
          </mxGeometry>
        </mxCell>
        <mxCell id="ap-XVFQRTmhTfxtv4-1j-41" value="" style="endArrow=classic;html=1;rounded=0;exitX=1;exitY=0.5;exitDx=0;exitDy=0;entryX=0.5;entryY=1;entryDx=0;entryDy=0;" edge="1" parent="WIyWlLk6GJQsqaUBKTNV-1" source="ap-XVFQRTmhTfxtv4-1j-39" target="ap-XVFQRTmhTfxtv4-1j-42">
          <mxGeometry width="50" height="50" relative="1" as="geometry">
            <mxPoint x="1130" y="930" as="sourcePoint" />
            <mxPoint x="1150" y="830" as="targetPoint" />
          </mxGeometry>
        </mxCell>
        <mxCell id="ap-XVFQRTmhTfxtv4-1j-43" value="Si" style="edgeLabel;html=1;align=center;verticalAlign=middle;resizable=0;points=[];" vertex="1" connectable="0" parent="ap-XVFQRTmhTfxtv4-1j-41">
          <mxGeometry x="-0.088" y="-4" relative="1" as="geometry">
            <mxPoint as="offset" />
          </mxGeometry>
        </mxCell>
        <mxCell id="ap-XVFQRTmhTfxtv4-1j-42" value="primos += &quot;, &quot;;" style="rounded=0;whiteSpace=wrap;html=1;" vertex="1" parent="WIyWlLk6GJQsqaUBKTNV-1">
          <mxGeometry x="1130" y="790" width="160" height="50" as="geometry" />
        </mxCell>
        <mxCell id="ap-XVFQRTmhTfxtv4-1j-44" value="" style="endArrow=classic;html=1;rounded=0;exitX=0.5;exitY=0;exitDx=0;exitDy=0;entryX=1;entryY=1;entryDx=0;entryDy=0;" edge="1" parent="WIyWlLk6GJQsqaUBKTNV-1" source="ap-XVFQRTmhTfxtv4-1j-42" target="ap-XVFQRTmhTfxtv4-1j-46">
          <mxGeometry width="50" height="50" relative="1" as="geometry">
            <mxPoint x="1210" y="740" as="sourcePoint" />
            <mxPoint x="1260" y="690" as="targetPoint" />
          </mxGeometry>
        </mxCell>
        <mxCell id="ap-XVFQRTmhTfxtv4-1j-45" value="" style="endArrow=classic;html=1;rounded=0;exitX=0.5;exitY=0;exitDx=0;exitDy=0;entryX=0.2;entryY=1.1;entryDx=0;entryDy=0;entryPerimeter=0;" edge="1" parent="WIyWlLk6GJQsqaUBKTNV-1" source="ap-XVFQRTmhTfxtv4-1j-39" target="ap-XVFQRTmhTfxtv4-1j-46">
          <mxGeometry width="50" height="50" relative="1" as="geometry">
            <mxPoint x="1040" y="810" as="sourcePoint" />
            <mxPoint x="1090" y="760" as="targetPoint" />
          </mxGeometry>
        </mxCell>
        <mxCell id="ap-XVFQRTmhTfxtv4-1j-48" value="No" style="edgeLabel;html=1;align=center;verticalAlign=middle;resizable=0;points=[];" vertex="1" connectable="0" parent="ap-XVFQRTmhTfxtv4-1j-45">
          <mxGeometry x="-0.1012" relative="1" as="geometry">
            <mxPoint as="offset" />
          </mxGeometry>
        </mxCell>
        <mxCell id="ap-XVFQRTmhTfxtv4-1j-46" value="" style="ellipse;whiteSpace=wrap;html=1;aspect=fixed;" vertex="1" parent="WIyWlLk6GJQsqaUBKTNV-1">
          <mxGeometry x="1110" y="690" width="30" height="30" as="geometry" />
        </mxCell>
        <mxCell id="ap-XVFQRTmhTfxtv4-1j-49" value="" style="endArrow=classic;html=1;rounded=0;exitX=0.5;exitY=0;exitDx=0;exitDy=0;" edge="1" parent="WIyWlLk6GJQsqaUBKTNV-1" source="ap-XVFQRTmhTfxtv4-1j-46">
          <mxGeometry width="50" height="50" relative="1" as="geometry">
            <mxPoint x="1230" y="670" as="sourcePoint" />
            <mxPoint x="1125" y="630" as="targetPoint" />
          </mxGeometry>
        </mxCell>
        <mxCell id="ap-XVFQRTmhTfxtv4-1j-50" value="contadorPirmos++;" style="rounded=0;whiteSpace=wrap;html=1;" vertex="1" parent="WIyWlLk6GJQsqaUBKTNV-1">
          <mxGeometry x="1065" y="590" width="120" height="40" as="geometry" />
        </mxCell>
        <mxCell id="ap-XVFQRTmhTfxtv4-1j-52" value="" style="endArrow=classic;html=1;rounded=0;exitX=0.5;exitY=0;exitDx=0;exitDy=0;entryX=0.644;entryY=1.019;entryDx=0;entryDy=0;entryPerimeter=0;" edge="1" parent="WIyWlLk6GJQsqaUBKTNV-1" source="ap-XVFQRTmhTfxtv4-1j-26" target="ap-XVFQRTmhTfxtv4-1j-54">
          <mxGeometry width="50" height="50" relative="1" as="geometry">
            <mxPoint x="610" y="880" as="sourcePoint" />
            <mxPoint x="710" y="850" as="targetPoint" />
          </mxGeometry>
        </mxCell>
        <mxCell id="ap-XVFQRTmhTfxtv4-1j-53" value="No" style="edgeLabel;html=1;align=center;verticalAlign=middle;resizable=0;points=[];" vertex="1" connectable="0" parent="ap-XVFQRTmhTfxtv4-1j-52">
          <mxGeometry x="-0.0857" y="-2" relative="1" as="geometry">
            <mxPoint as="offset" />
          </mxGeometry>
        </mxCell>
        <mxCell id="ap-XVFQRTmhTfxtv4-1j-54" value="j ++;" style="rounded=0;whiteSpace=wrap;html=1;" vertex="1" parent="WIyWlLk6GJQsqaUBKTNV-1">
          <mxGeometry x="540" y="740" width="100" height="50" as="geometry" />
        </mxCell>
        <mxCell id="ap-XVFQRTmhTfxtv4-1j-55" value="" style="endArrow=classic;html=1;rounded=0;exitX=0.5;exitY=0;exitDx=0;exitDy=0;entryX=1;entryY=0.5;entryDx=0;entryDy=0;" edge="1" parent="WIyWlLk6GJQsqaUBKTNV-1" source="ap-XVFQRTmhTfxtv4-1j-54" target="ap-XVFQRTmhTfxtv4-1j-22">
          <mxGeometry width="50" height="50" relative="1" as="geometry">
            <mxPoint x="590" y="740" as="sourcePoint" />
            <mxPoint x="640" y="690" as="targetPoint" />
          </mxGeometry>
        </mxCell>
        <mxCell id="ap-XVFQRTmhTfxtv4-1j-57" value="" style="endArrow=classic;html=1;rounded=0;exitX=0.5;exitY=0;exitDx=0;exitDy=0;entryX=1;entryY=0.5;entryDx=0;entryDy=0;" edge="1" parent="WIyWlLk6GJQsqaUBKTNV-1" source="ap-XVFQRTmhTfxtv4-1j-38" target="ap-XVFQRTmhTfxtv4-1j-14">
          <mxGeometry width="50" height="50" relative="1" as="geometry">
            <mxPoint x="740" y="560" as="sourcePoint" />
            <mxPoint x="550" y="400" as="targetPoint" />
            <Array as="points">
              <mxPoint x="690" y="430" />
            </Array>
          </mxGeometry>
        </mxCell>
        <mxCell id="ap-XVFQRTmhTfxtv4-1j-58" value="" style="endArrow=classic;html=1;rounded=0;exitX=0;exitY=0.5;exitDx=0;exitDy=0;entryX=1;entryY=0.5;entryDx=0;entryDy=0;" edge="1" parent="WIyWlLk6GJQsqaUBKTNV-1" source="ap-XVFQRTmhTfxtv4-1j-50" target="ap-XVFQRTmhTfxtv4-1j-38">
          <mxGeometry width="50" height="50" relative="1" as="geometry">
            <mxPoint x="910" y="580" as="sourcePoint" />
            <mxPoint x="960" y="530" as="targetPoint" />
          </mxGeometry>
        </mxCell>
        <mxCell id="ap-XVFQRTmhTfxtv4-1j-59" value="" style="endArrow=classic;html=1;rounded=0;exitX=1;exitY=0.5;exitDx=0;exitDy=0;entryX=0.136;entryY=0.361;entryDx=0;entryDy=0;entryPerimeter=0;" edge="1" parent="WIyWlLk6GJQsqaUBKTNV-1" source="ap-XVFQRTmhTfxtv4-1j-6" target="ap-XVFQRTmhTfxtv4-1j-30">
          <mxGeometry width="50" height="50" relative="1" as="geometry">
            <mxPoint x="630" y="850" as="sourcePoint" />
            <mxPoint x="680" y="800" as="targetPoint" />
          </mxGeometry>
        </mxCell>
        <mxCell id="ap-XVFQRTmhTfxtv4-1j-60" value="No" style="edgeLabel;html=1;align=center;verticalAlign=middle;resizable=0;points=[];" vertex="1" connectable="0" parent="ap-XVFQRTmhTfxtv4-1j-59">
          <mxGeometry x="0.2096" y="-5" relative="1" as="geometry">
            <mxPoint y="-3" as="offset" />
          </mxGeometry>
        </mxCell>
      </root>
    </mxGraphModel>
  </diagram>
</mxfile>
